<?xml version="1.0" encoding="utf-8"?>
<!-- Generator: Adobe Illustrator 18.0.0, SVG Export Plug-In . SVG Version: 6.00 Build 0)  -->
<!DOCTYPE svg PUBLIC "-//W3C//DTD SVG 1.1//EN" "http://www.w3.org/Graphics/SVG/1.1/DTD/svg11.dtd">
<svg version="1.1" id="Calque_1" xmlns="http://www.w3.org/2000/svg" xmlns:xlink="http://www.w3.org/1999/xlink" x="0px" y="0px"
	 viewBox="0 0 74 74" enable-background="new 0 0 74 74" xml:space="preserve">
<g>
	<g>
		<path fill="#85C9B7" d="M49.2,5.6c0,0-0.2,4.3-2,9.4c0,0-1.3,3.1-3,5.8c-0.7,1-1.4,2.1-1.8,2.8c0,0,0,0,0,0
			c-1.4,2-3.5,5.5-3.6,9.4c-0.1,3.6,1.4,5.9,3.4,7c0,0,0,0,0,0c3.2,1.7,5.9-0.6,5.9-0.6h0c4.9-3.6,6-14.6,6-15.3c0,0,0,0,0,0
			C54.4,19.6,53.2,13.4,49.2,5.6"/>
		<path fill="#95C11F" d="M3,58.6c0,0,3.5-2.5,8.7-4.1c0,0,3.2-0.8,6.4-1.1c1.2-0.1,2.5-0.2,3.3-0.3h0c2.5-0.1,6.5-0.6,9.7-2.9
			c2.9-2.1,3.9-4.7,3.4-7c0,0,0,0,0,0c-0.6-3.6-4.1-4.3-4.1-4.3v0c-5.9-1.7-15.2,4.2-15.8,4.6c0,0,0,0,0,0
			C10.9,45.9,6.7,50.7,3,58.6"/>
		<path fill="#6CABC7" d="M71,68.1c0,0-3.9-1.8-8-5.4c0,0-2.3-2.4-4.2-4.9c-0.7-1-1.5-2-1.9-2.7c0,0,0,0,0,0
			c-1.3-2.1-3.8-5.3-7.4-6.8c-3.3-1.4-6-0.9-7.7,0.6c0,0,0,0,0,0c-2.8,2.4-1.7,5.7-1.7,5.7v0c1.5,5.9,11.4,10.9,12,11.3l0,0
			C56,67.8,62.2,69,71,68.1"/>
	</g>
</g>
</svg>
