<?xml version="1.0" encoding="utf-8"?>
<!-- Generator: Adobe Illustrator 18.0.0, SVG Export Plug-In . SVG Version: 6.00 Build 0)  -->
<!DOCTYPE svg PUBLIC "-//W3C//DTD SVG 1.1//EN" "http://www.w3.org/Graphics/SVG/1.1/DTD/svg11.dtd">
<svg version="1.1" id="Calque_1" xmlns="http://www.w3.org/2000/svg" xmlns:xlink="http://www.w3.org/1999/xlink" x="0px" y="0px"
	 viewBox="0 0 182.7 220.7" enable-background="new 0 0 182.7 220.7" xml:space="preserve">
<circle cx="52.8" cy="100.4" r="17.5"/>
<circle cx="27.6" cy="122.3" r="10.6"/>
<circle cx="95" cy="121.6" r="24.7"/>
<circle cx="139.3" cy="112.9" r="15.6"/>
<circle cx="117.7" cy="91.9" r="8.8"/>
<circle cx="53.8" cy="137.9" r="15.6"/>
<circle cx="79.5" cy="166.1" r="17.5"/>
<circle cx="117.7" cy="160.5" r="15.6"/>
<circle cx="104.3" cy="184.9" r="8.8"/>
<circle cx="127.8" cy="136.2" r="7.1"/>
<circle cx="82.7" cy="201.1" r="13.4"/>
<path d="M161.1,20.3l-4.4-1.7c0.5,0.8,1,1.6,1.5,2.4c0.4-0.1,0.8-0.2,1.2-0.3C160,20.5,160.7,20.4,161.1,20.3z"/>
<path d="M162.9,66.3l0.2-0.2c0.1-0.1,0.2-0.2,0.3-0.4L162.9,66.3z"/>
<path d="M173.7,39.6c-0.2-2.4-0.5-4.8-1-7.1c-0.5-2.3-1.2-4.6-2-6.8c-0.8-2.2-1.8-4.3-2.9-6.4c-0.6-1-1.2-2.1-1.8-3.1
	c-0.6-1-1.3-2-2.1-2.9l-1.8-2.3l-2.6,0.6c-0.9,0.2-1.5,0.4-2.3,0.6c-0.7,0.2-1.4,0.4-2.1,0.6c-1.4,0.5-2.8,1-4.1,1.5
	c-2.7,1.1-5.3,2.4-7.8,3.9c-2.5,1.5-4.9,3.2-7.1,5.2c-2.2,2-4.2,4.3-5.9,6.8c-1.6,2.5-3,5.3-3.8,8.2c-0.8,2.9-1.2,5.9-1.1,8.8
	c0.1,1.5,0.2,2.9,0.4,4.3c0.2,1.4,0.5,2.8,0.9,4.1c0.4,1.4,0.9,2.7,1.4,4c0.5,1.3,1.1,2.5,1.7,3.8l0.8-0.3c-0.3-1.3-0.6-2.6-0.8-4
	c-0.2-1.3-0.4-2.6-0.5-4c-0.2-2.6-0.3-5.2,0.1-7.8c0.2-1.3,0.4-2.5,0.7-3.7c0.3-1.2,0.7-2.4,1.2-3.5c0.5-1.1,1.1-2.2,1.7-3.2
	c0.6-1,1.4-2,2.1-3c1.6-1.9,3.4-3.5,5.4-5c2-1.5,4.1-2.8,6.4-3.9c2.3-1.1,4.6-2.1,7-2.9c1.2-0.4,2.4-0.8,3.6-1.1
	c0.2-0.1,0.4-0.1,0.6-0.2c-0.5-0.8-1-1.6-1.5-2.4l4.4,1.7c-0.4,0.1-1.1,0.2-1.7,0.3c-0.4,0.1-0.8,0.2-1.2,0.3c0.5,0.9,1,1.7,1.4,2.6
	c0.9,1.7,1.6,3.6,2.3,5.4c0.7,1.8,1.2,3.7,1.6,5.6c0.2,0.9,0.4,1.9,0.6,2.8c0.2,0.9,0.3,1.9,0.3,2.8c0.1,0.9,0.1,1.9,0.1,2.8l0,1.4
	l-0.1,1.4l-0.2,1.4l-0.2,1.4l-0.3,1.3l-0.4,1.3l-0.4,1.3c-0.2,0.4-0.3,0.8-0.5,1.2c-0.2,0.4-0.4,0.8-0.6,1.2
	c-0.2,0.4-0.4,0.8-0.7,1.1c-0.3,0.4-0.5,0.7-0.7,1.1c-0.3,0.3-0.5,0.7-0.8,1l-0.9,1l-1,0.9l-0.5,0.5c0.1-0.1-0.1,0.1-0.2,0.2
	c-0.1,0.1-0.2,0.2-0.3,0.3c-0.2,0.2-0.4,0.4-0.7,0.6c-0.5,0.4-1,0.8-1.6,1.2c-1.1,0.7-2.4,1.4-3.7,2c-2.6,1.1-5.4,1.8-8.4,2.2
	c-2.9,0.4-6,0.3-9,0.1c-3-0.3-6.1-0.8-9.1-1.5c-3-0.7-6-1.7-8.9-2.7l-4.5-1.7l-2.4-0.9l-2.1-0.6l-0.3-0.1c-1.6-0.5-3.2-0.9-4.9-1.3
	c-1.6-0.3-3.3-0.7-4.9-1c-0.4-0.1-0.7-0.1-1.1-0.2c-2.9-0.5-5.9-0.8-8.8-1c-3.3-0.2-6.6-0.3-9.9-0.2c-3.3,0.1-6.6,0.3-9.9,0.6
	c-3.3,0.3-6.5,0.8-9.8,1.3c-3.2,0.6-6.4,1.2-9.6,1.9c-6.4,1.4-12.7,3.2-18.8,5.3c-6.2,2.1-12.3,4.4-18.2,7.1l0.3,0.8
	c6-2.3,12.2-4.3,18.4-6c6.2-1.7,12.5-3.1,18.8-4.2c3.2-0.6,6.3-1,9.5-1.4c3.2-0.3,6.4-0.6,9.6-0.8c3.2-0.2,6.4-0.2,9.6-0.1
	c3.2,0,6.3,0.3,9.5,0.6c3.1,0.4,6.1,0.8,9.1,1.5c0,0.1,0,0.3,0,0.4c0,0.5,0,1,0,1.5l-0.1,1.4c-0.1,1-0.3,1.9-0.4,2.9
	c-0.4,1.9-0.9,3.7-1.6,5.5c-0.7,1.7-1.5,3.4-2.4,5c-0.9,1.6-2,3-3.1,4.3c-1.1,1.3-2.3,2.5-3.4,3.6c-1.2,1.1-2.2,2.2-3.2,3.1
	c-1,0.9-1.8,1.9-2.4,2.7c-0.6,0.8-1,1.6-1.2,2c-0.2,0.5-0.3,0.7-0.3,0.7l0.9,0.6c0,0,0.2-0.2,0.5-0.6c0.3-0.4,0.8-0.8,1.5-1.3
	c0.7-0.5,1.6-1.1,2.7-1.7c1.1-0.6,2.4-1.3,3.8-2.2c1.4-0.8,3-1.8,4.5-3c1.6-1.2,3.2-2.6,4.7-4.2c1.5-1.6,2.9-3.4,4.1-5.4
	c1.2-2,2.3-4.1,3.2-6.3c0.4-1.1,0.9-2.2,1.3-3.3l0.6-1.6c0.1-0.4,0.2-0.7,0.3-1.1l1.5,0.5l2.2,0.9l4.5,1.9c3.2,1.2,6.3,2.3,9.6,3.2
	c3.3,0.9,6.6,1.6,10,2c3.4,0.4,6.9,0.6,10.4,0.3c3.5-0.3,7.1-1,10.5-2.2c1.7-0.6,3.4-1.4,5-2.4c0.8-0.5,1.6-1,2.4-1.6
	c0.4-0.3,0.8-0.6,1.2-0.9c0.2-0.2,0.4-0.3,0.6-0.5c0.1-0.1,0.2-0.2,0.3-0.3l-0.2,0.2l0.5-0.5c-0.1,0.2-0.2,0.3-0.3,0.4l1.2-1
	c0.5-0.4,0.9-0.9,1.4-1.3c0.4-0.5,0.9-0.9,1.3-1.4c0.4-0.5,0.8-1,1.2-1.5c0.4-0.5,0.7-1.1,1.1-1.6c0.3-0.5,0.6-1.1,1-1.7
	c0.3-0.6,0.6-1.1,0.8-1.7c0.3-0.6,0.5-1.2,0.7-1.8l0.6-1.8l0.5-1.8l0.4-1.8l0.3-1.8l0.2-1.8l0.1-1.8C173.8,42,173.7,40.8,173.7,39.6
	z"/>
</svg>
